# xmcd
#
# Track frame offsets: 
#        150
#        30237
#        66405
#        93475
#        107765
#        139397
#        158235
#
# Disc length: 2462 seconds
#
# Revision: 4
# Processed by: cddbd v1.5.2PL0 Copyright (c) Steve Scherf et al.
# Submitted via: ExactAudioCopy v0.95b4
#
DISCID=5b099c07
DTITLE=Robin Trower - Live!
DYEAR=1976
DGENRE=
TTITLE0=Too Rolling Stoned
TTITLE1=Daydream
TTITLE2=Rock Me Baby
TTITLE3=Lady Love
TTITLE4=I Can't Wait Much Longer
TTITLE5=Alethea
TTITLE6=Little Bit Of Sympathy
EXTD=Live!\n© 1988 Chrysalis Records\n\nOriginally Released 1976\nCD E
EXTD=dition Released 1988?\nRemastered and Expanded CD Edition Released 
EXTD=July 26, 2011\n\nAMG EXPERT REVIEW:  An excellent recording of a 
EXTD=superb 1975 stadium show in Sweden, Robin Trower's Live album is 
EXTD=a perfect snapshot of the guitar hero in his prime. The record al
EXTD=so gives ample evidence of why the Robin Trower Band was one of t
EXTD=he most successful live guitar rock acts of the '70s, highlightin
EXTD=g not only Trower's virtuoso Stratocaster licks, but the soulful 
EXTD=vocals of bassist James Dewar and the polyrhythmic drumming of Bi
EXTD=ll Lordan. The song selection here is top-notch, the most obvious
EXTD=treat being the perennial Trower classic "Too Rolling Stoned," t
EXTD=o which Lordon (who replaced Reg Isadore, drummer on the studio v
EXTD=ersion of the song) contributes a somewhat funkier flavor. The sa
EXTD=me treatment is given to a blistering take on "Little Bit of Symp
EXTD=athy," which contains moments that recall the legendarily telepat
EXTD=hic interplay between Jimi Hendrix and Mitch Mitchell. It's a mys
EXTD=tery why James Dewar isn't generally recognized as one of the fin
EXTD=est blue-eyed soul singers of the '70s, as he is easily as talent
EXTD=ed and convincing as Paul Rogers or Joe Cocker. Here, he's in exc
EXTD=ellent form and his vocals on the slow-burning "I Can't Wait Much
EXTD=Longer" are spine-tingling. Although none of the performances st
EXTD=ray too far from the songs' studio versions, that fact is part of
EXTD=what makes this album interesting. Live shows the Robin Trower B
EXTD=and to be a quintessential no-frills blues-rock band, capable of 
EXTD=kicking serious ass no matter what the setting.  -- Pemberton Roa
EXTD=ch
EXTT0=
EXTT1=
EXTT2=
EXTT3=
EXTT4=
EXTT5=
EXTT6=
PLAYORDER=
